<svg width="66" height="66" viewBox="0 0 66 66" fill="none" xmlns="http://www.w3.org/2000/svg">
<path d="M48.2461 44.4587C48.2461 44.4587 48.4253 44.3042 48.7102 44.0423C52.9752 40.0762 55.3871 34.6725 54.8654 28.9487C53.8926 18.2779 43.0698 10.5335 30.6962 11.6615C18.3225 12.7895 9.07843 22.3632 10.0512 33.034C11.0244 43.7097 21.8199 51.1554 34.1936 50.0274C35.2492 49.9312 36.9757 49.7035 39.373 49.3444C42.7011 51.0995 47.4398 52.357 51.4531 51.9911C52.6955 51.8779 53.1875 50.8038 52.2959 49.8357C50.9507 48.4622 49.0659 46.2366 48.2508 44.4557L48.2461 44.4587Z" stroke="#DBBCFF" stroke-width="2" stroke-linecap="round" stroke-linejoin="round"/>
<path d="M21.7383 37.3555C28.5299 43.0123 38.4886 42.1044 44.1454 35.3128" stroke="#DBBCFF" stroke-width="2" stroke-linecap="round" stroke-linejoin="round"/>
</svg>
